# xmcd
#
# Track frame offsets:
#	150
#	19697
#	37335
#	53485
#	68915
#	84395
#	99795
#	115872
#	134380
#	149597
#	168455
#	183540
#
# Disc length: 2637 seconds
#
# Revision: 0
# Processed by: cddbd v1.4PL0 Copyright (c) Steve Scherf et al.
# Submitted via: audiograbber 1.81.03
#
DISCID=a30a4b0c
DTITLE=Various Country - Real Luv - Country Love Songs
DYEAR=1996
DGENRE=Country
TTITLE0=Vince Gill - Whenever You Come Around
TTITLE1=John Barry - Your Love Amazes Me
TTITLE2=Wynonna - Only Love
TTITLE3=Billy Oean - It's What I Do
TTITLE4=The Rankin Family - Borders And Time
TTITLE5=Patty Loveless - You Saved Me
TTITLE6=George Strait - Baby Blue
TTITLE7=John Michael Montgomery - Rope The Moon
TTITLE8=Bryan White - Someone Else's Star
TTITLE9=Tanya Tucker - Two Sparrows In A Hurricane
TTITLE10=Jeff Carson - Not On Your Love
TTITLE11=George Jones - Wall Can Fall
EXTD=
EXTT0=
EXTT1=
EXTT2=
EXTT3=
EXTT4=
EXTT5=
EXTT6=
EXTT7=
EXTT8=
EXTT9=
EXTT10=
EXTT11=
PLAYORDER=
